<svg version="1.1" id="Layer_1" xmlns="http://www.w3.org/2000/svg" xmlns:xlink="http://www.w3.org/1999/xlink" x="0px" y="0px" viewBox="0 0 1920 362.8" style="enable-background:new 0 0 1920 362.8;" xml:space="preserve">
    <path class="st0" d="M0,362.8h1920l0-191c-103.6,17.4-234-79-234-79l-93-69c-84.8-70.4-185,38-185,38l-113.9,119 c-58.2,57.5-122.1,59-122.1,59c-100.6,8.8-111.9-75-111.9-75c-22.6-117.3-71.9-144-71.9-144c-79.2-32.5-83.2,42-83.2,42 c-14.2,89.1-78.9,61-78.9,61c-42.2-23.4-95.9-70-95.9-70c-81.5-72.4-184.7,26-184.7,26l-118.4,95c-73.9,64.7-174.8,36-174.8,36 C177.7,192.9,0,67.7,0,67.7L0,362.8z"/>
</svg>