<?xml version="1.0" encoding="utf-8"?>
<!-- Generator: Adobe Illustrator 19.2.0, SVG Export Plug-In . SVG Version: 6.00 Build 0)  -->
<svg version="1.1" id="Layer_1" xmlns="http://www.w3.org/2000/svg" xmlns:xlink="http://www.w3.org/1999/xlink" x="0px" y="0px"
	 viewBox="0 0 200 200" style="enable-background:new 0 0 200 200;" xml:space="preserve">
<style type="text/css">
	.st0{fill:#FF5722;}
	.st1{fill:#FFFFFF;}
</style>
<g transform="translate(-250,-50)">
	<rect x="0" y="0" class="st0" width="450" height="250"/>
	<g>
		<g>
			<path class="st1" d="M325.9,236c-7.4-3.2-13.7-5.6-19.8-8.6c-1.3-0.6-2.2-3.3-2.2-5c-0.2-17-0.1-34.1-0.1-51.1
				c0-9.1-0.8-18.5,0.7-27.4c3.2-19.2,19.5-33.9,36.8-35.4c25.2-2.1,41.1,13.2,46.8,29.7c3,8.9,2.6,18.1,2.5,27.3
				c-0.1,9.1-0.4,18.1-0.5,27.2c-0.1,10.5,0.1,21-0.2,31.5c0,1.3-1.5,3.2-2.8,3.8c-6.1,2.9-12.5,5.4-19.7,8.4c0-2.6,0-4.2,0-5.9
				c0-19.1,0-38.2,0-57.3c0-8.5-0.1-16.9-0.5-25.4c-0.3-8.3-8-15.9-17-17.1c-9.7-1.3-18.7,4.1-21.8,12.3c-2.6,6.7-2.3,13.2-1.6,20.1
				c0.4,3.7-0.6,7.6-0.6,11.4c-0.1,18.5,0,36.9,0,55.4C325.9,231.4,325.9,232.9,325.9,236z"/>
			<path class="st1" d="M336.3,218.7c0-13.5,0.1-27,0-40.5c-0.1-6.1-0.7-12.1-0.8-18.2c-0.1-5.7-0.3-11.4,0.1-17.1
				c0.4-5.6,8.2-9.1,15.2-7.2c5.8,1.6,7.2,3.8,6.8,10.1c-0.2,2.8,0.4,5.7,0.4,8.5c-0.1,26-0.4,52-0.4,78c0,3.8-1,5.6-5.1,5.3
				c-4-0.2-8-0.1-11.9,0c-3.3,0.1-4.5-1.4-4.4-4.6c0.2-4.8,0-9.5,0-14.3C336.2,218.7,336.2,218.7,336.3,218.7z"/>
			<path class="st1" d="M358.5,87.5c-7.4,0-14.1,0-21.4,0c0-6.5-0.1-12.8,0.1-19c0-1,1.9-2.6,3-2.6c5-0.3,10.1-0.3,15.2,0
				c1.1,0.1,2.9,2,3,3.1C358.6,75,358.5,81,358.5,87.5z"/>
			<path class="st1" d="M428.7,162.7"/>
			<g>
				<path class="st1" d="M433.7,150.7c0-1.7,0.3-3.4,0.4-5.2c0-0.2,0-0.4,0-0.7c0-0.2,0-0.5,0-0.7c-0.2-0.8-0.3-1.7-0.3-2.7
					c0-0.4,0-0.7,0.1-1.1c-0.7-1.2-0.8-2.7-0.4-4.1c0-0.2-0.1-0.4-0.2-0.6c-4.2-20.3-14-37.4-30.2-50.5
					c-9.6-7.7-20.2-13.3-32.5-16.6c0,6.5,0.1,12.7-0.1,18.9c-0.1,2.7,0.9,3.8,3.3,4.8c36.9,15.6,50.1,60,29.7,92.9
					c-0.7,1.1-1.5,2.3-1.5,3.4c-0.1,9.7-0.1,19.4-0.1,29.6c6-3.1,13.4-10.6,19-20c8.3-13.8,15-28.3,13.3-45.1
					C433.9,152.4,433.7,151.6,433.7,150.7z"/>
				<path class="st1" d="M433.3,135.7c0,0,1.9,7.9,1.2,21.1c-0.7,13.2-12.4,10.8-12.4,10.8v-34.3L433.3,135.7z"/>
			</g>
			<g>
				<path class="st1" d="M261.6,150c0-1.7-0.3-3.4-0.4-5.2c0-0.2,0-0.4,0-0.7c0-0.2,0-0.5,0-0.7c0.2-0.8,0.3-1.7,0.3-2.7
					c0-0.4,0-0.7-0.1-1.1c0.7-1.2,0.8-2.7,0.4-4.1c0-0.2,0.1-0.4,0.2-0.6c4.2-20.3,14-37.4,30.2-50.5c9.6-7.7,20.2-13.3,32.5-16.6
					c0,6.5-0.1,12.7,0.1,18.9c0.1,2.7-0.9,3.8-3.3,4.8c-36.9,15.6-50.1,60-29.7,92.9c0.7,1.1,1.5,2.3,1.5,3.4
					c0.1,9.7,0.1,19.4,0.1,29.6c-6-3.1-13.4-10.6-19-20c-8.3-13.8-15-28.3-13.3-45.1C261.4,151.8,261.6,151,261.6,150z"/>
				<path class="st1" d="M262,135.1c0,0-1.9,7.9-1.2,21.1c0.7,13.2,12.4,10.8,12.4,10.8v-34.3L262,135.1z"/>
			</g>
		</g>
	</g>
</g>
</svg>
