<?xml version="1.0" encoding="utf-8"?>
<!-- Generator: Adobe Illustrator 19.2.1, SVG Export Plug-In . SVG Version: 6.00 Build 0)  -->
<svg version="1.1" id="Layer_1" xmlns="http://www.w3.org/2000/svg" xmlns:xlink="http://www.w3.org/1999/xlink" x="0px" y="0px" viewBox="0 0 878 422" style="enable-background:new 0 0 878 422;" xml:space="preserve">
	<style>
		path { fill: #fff; }
		polygon { fill: #fff; }
		.opacity { fill: rgba(255,255,255,0.5); }
	</style>
	<g>
		<g>
			<path d="M213,420.5l1.5,1.5h52l1-1.5V419H213V420.5z M287.3,419v1.5l1.5,1.5h52l1-1.5V419H287.3z M122.4,420.5l1.5,1.5h29.7 l1-1.5V419h-32.2V420.5z"/>
		</g>
		<g>
			<path d="M39.6,200.3c-2.5,0-4.6,2.1-4.6,4.6s2.1,4.6,4.6,4.6c2.5,0,4.6-2.1,4.6-4.6S42.1,200.3,39.6,200.3z M67.3,254 c-2.6,0-4.7,2.1-4.7,4.7c0,2.6,2.1,4.7,4.7,4.7c2.6,0,4.7-2.1,4.7-4.7C72,256.1,69.9,254,67.3,254z M67,172c-2.7,0-5,2.2-5,4.9 v55.8c0,2.7,2.2,4.9,5,4.9c2.7,0,5-2.2,5-4.9V177C72,174.2,69.8,172,67,172z"/>
		</g>

		<path d="M803.7,3c-57.8,0-664,0-726.9,0C22.9,3,0,36.1,0,77.1v267.8C0,381.1,20.8,419,76.8,419c0,0,671.3,0,726.9,0
			c51.6,0,74.3-33.2,74.3-74.1V77.1C878,36.1,857.1,3,803.7,3z M873.5,340c0,40.9-18.7,74.1-74.3,74.1c-55.6,0-717,0-717,0
			C25,414.1,5.5,380.9,5.5,340V82c0-40.9,17.9-74.1,76.8-74.1c62.9,0,659.2,0,717,0c57.8,0,74.3,33.2,74.3,74.1V340z"/>
		<g>
			<polygon points="220,0 158.5,0 157.6,1.5 157.6,3 221.4,3 221.4,1.5 "/>
		</g>
		<path d="M765,25.5c2.8,0,5,2.2,5,5v361c0,2.8-2.2,5-5,5H113c-2.8,0-5-2.2-5-5v-361c0-2.8,2.2-5,5-5H765 M765,23.5H113 c-3.9,0-7,3.1-7,7v361c0,3.9,3.1,7,7,7h652c3.9,0,7-3.1,7-7v-361C772,26.6,768.9,23.5,765,23.5L765,23.5z"/>
		<path class="opacity" d="M821.5,184.1c14.9,0,27,12.1,27,26.9c0,14.8-12.1,26.9-27,26.9c-14.9,0-27-12.1-27-26.9 C794.5,196.1,806.6,184.1,821.5,184.1 M821.5,174.1c-20.4,0-37,16.5-37,36.9s16.6,36.9,37,36.9s37-16.5,37-36.9 S841.9,174.1,821.5,174.1L821.5,174.1z"/>
	</g>
</svg>
